<?xml version="1.0" standalone="no"?>
<!DOCTYPE svg PUBLIC "-//W3C//DTD SVG 20010904//EN"
 "http://www.w3.org/TR/2001/REC-SVG-20010904/DTD/svg10.dtd">
<svg version="1.0" xmlns="http://www.w3.org/2000/svg"
 width="512.000000pt" height="512.000000pt" viewBox="0 0 512.000000 512.000000"
 preserveAspectRatio="xMidYMid meet">
<metadata>
Created by potrace 1.14, written by Peter Selinger 2001-2017
</metadata>
<g transform="translate(0.000000,512.000000) scale(0.100000,-0.100000)"
fill="#000000" stroke="none">
<path d="M2278 5055 c-1 -1 -28 -6 -58 -10 -30 -4 -68 -9 -85 -11 -16 -3 -41
-6 -55 -8 -14 -2 -25 -5 -25 -6 0 -2 -9 -4 -20 -5 -11 -2 -49 -10 -85 -19 -36
-9 -74 -19 -85 -21 -34 -7 -197 -65 -240 -84 -22 -10 -57 -24 -77 -32 -21 -7
-38 -17 -38 -22 0 -4 -4 -6 -9 -2 -5 3 -12 1 -16 -5 -4 -6 -10 -8 -15 -5 -5 3
-12 1 -15 -5 -4 -6 -28 -20 -53 -32 -26 -12 -49 -25 -52 -28 -3 -3 -24 -15
-47 -27 -23 -11 -40 -23 -36 -27 3 -3 -1 -6 -10 -6 -8 0 -22 -6 -29 -13 -7 -7
-20 -16 -28 -20 -40 -20 -59 -34 -53 -40 3 -4 0 -7 -7 -7 -32 0 -350 -283
-350 -311 0 -5 -7 -9 -15 -9 -8 0 -15 -5 -15 -11 0 -7 -6 -17 -13 -23 -29 -24
-148 -186 -209 -286 -65 -106 -143 -260 -154 -305 -3 -14 -10 -28 -15 -31 -5
-3 -7 -10 -4 -15 4 -5 1 -9 -4 -9 -6 0 -10 -3 -9 -7 2 -7 -19 -80 -52 -185 -5
-14 -6 -29 -3 -32 4 -3 1 -6 -4 -6 -6 0 -10 -11 -8 -25 1 -14 -1 -25 -5 -25
-4 0 -7 -6 -7 -12 0 -7 -5 -44 -12 -83 -6 -38 -12 -82 -13 -97 -1 -16 -6 -28
-11 -28 -4 0 -3 -9 3 -19 5 -11 7 -22 3 -24 -5 -3 -8 -39 -8 -81 0 -42 -4 -76
-8 -76 -5 0 -5 -5 -1 -11 3 -6 8 -53 9 -104 2 -52 6 -99 10 -104 3 -6 1 -11
-6 -11 -8 0 -8 -4 -1 -12 5 -7 13 -40 16 -73 4 -33 11 -80 17 -105 5 -25 12
-58 15 -75 3 -16 10 -35 16 -42 7 -9 2 -14 -19 -19 -61 -13 -84 -29 -104 -72
-21 -42 -33 -104 -29 -152 5 -79 8 -105 10 -105 1 0 4 -13 5 -30 2 -16 4 -30
5 -30 1 0 4 -9 5 -21 3 -29 37 -137 47 -150 4 -6 6 -13 3 -16 -3 -3 1 -11 10
-18 8 -7 15 -19 15 -26 0 -8 5 -14 10 -14 6 0 10 -5 10 -11 0 -12 70 -83 70
-71 0 4 4 2 8 -4 4 -6 27 -22 52 -35 60 -31 166 -32 226 -2 33 16 44 17 58 8
9 -7 16 -16 16 -20 0 -4 9 -17 20 -29 86 -93 110 -121 110 -129 0 -4 4 -6 8
-3 5 3 15 -6 22 -19 7 -14 16 -25 19 -25 14 0 63 -50 50 -51 -8 -1 -38 -2 -67
-4 -29 -2 -60 -6 -68 -9 -8 -3 -14 0 -14 7 0 7 -3 8 -8 2 -4 -5 -31 -10 -59
-10 -59 0 -66 -8 -26 -29 16 -8 38 -24 51 -36 12 -11 22 -17 22 -13 0 4 4 4 8
-2 4 -5 14 -14 23 -20 32 -19 204 -138 209 -144 3 -3 17 -12 32 -20 15 -8 37
-22 47 -33 11 -10 24 -18 28 -18 7 0 29 -16 81 -60 6 -6 12 -7 12 -3 0 4 4 3
8 -3 4 -5 24 -20 45 -33 20 -12 37 -26 37 -29 0 -4 14 -13 30 -20 17 -8 36
-19 43 -25 7 -7 20 -16 29 -22 34 -22 133 -90 138 -95 3 -3 18 -13 33 -23 l28
-18 -21 -29 c-29 -41 -99 -193 -94 -202 3 -4 1 -8 -4 -8 -5 0 -9 -6 -10 -12
-1 -17 -10 -53 -13 -53 -1 0 -3 -13 -4 -30 -2 -16 -4 -30 -5 -30 -10 0 -22
-237 -13 -261 2 -6 28 -10 64 -9 33 1 62 -2 65 -7 3 -4 13 -4 22 0 17 9 83 8
107 -2 7 -2 16 -2 19 2 11 10 86 8 86 -3 0 -5 4 -4 9 4 6 9 11 10 15 2 4 -6
12 -9 17 -5 17 10 59 12 65 3 3 -5 14 -4 25 1 14 8 19 7 19 -2 0 -8 3 -9 8 -3
4 6 23 10 42 10 19 0 38 -4 42 -10 5 -6 8 -5 8 4 0 10 3 11 13 2 8 -6 17 -8
20 -5 9 10 48 11 79 3 14 -4 29 -4 32 -1 11 10 86 8 86 -3 0 -5 4 -4 9 4 6 9
11 10 15 2 4 -6 12 -9 17 -5 17 10 59 12 65 3 3 -5 14 -4 25 1 14 8 19 7 19
-2 0 -8 3 -9 8 -3 8 12 62 15 62 4 0 -4 14 -4 30 1 19 5 30 5 30 -1 0 -6 6 -7
12 -3 18 11 48 12 54 2 3 -4 14 -3 25 2 14 8 19 7 19 -2 0 -8 3 -9 8 -3 5 8
67 13 67 5 0 -1 10 -3 23 -4 12 -2 22 1 22 5 0 9 20 7 37 -4 6 -4 14 -3 17 2
4 6 18 6 35 1 16 -4 32 -5 35 -2 11 10 86 8 86 -3 0 -5 4 -4 9 4 6 9 11 10 15
2 4 -6 12 -8 18 -5 16 10 49 11 80 3 14 -4 29 -4 32 -1 11 10 86 8 86 -3 0 -5
4 -4 9 4 6 9 11 10 15 2 4 -6 12 -8 18 -5 16 10 49 11 80 3 14 -4 29 -4 32 -1
11 10 86 8 86 -3 0 -5 4 -4 9 4 6 9 11 10 15 2 4 -6 12 -8 18 -5 16 10 50 11
76 2 12 -4 22 -4 22 0 0 5 43 8 96 7 77 -1 97 2 103 15 7 13 7 68 -2 228 0 12
-4 22 -7 22 -3 0 -7 12 -8 27 -5 67 -102 303 -124 303 -5 0 -6 5 -3 10 3 6 1
10 -4 10 -6 0 -11 6 -11 14 0 8 -3 16 -7 18 -5 1 -25 25 -46 52 l-37 49 31 21
c16 12 44 33 62 48 18 15 37 28 44 28 6 0 13 4 15 9 3 8 99 82 173 133 22 15
53 39 69 53 16 14 32 25 35 25 3 0 20 11 36 25 41 34 45 37 87 65 21 14 38 28
38 31 0 4 13 12 30 19 16 7 27 16 24 21 -3 5 0 9 6 9 12 0 129 86 142 105 4 6
8 7 8 3 0 -8 34 18 72 55 10 9 19 16 21 15 1 -2 15 7 31 20 l29 22 -122 -5
c-66 -3 -121 -2 -121 2 0 5 20 31 45 58 24 28 49 56 55 62 8 10 20 7 53 -11
33 -18 55 -22 102 -20 33 1 67 4 75 7 46 14 80 30 80 38 0 5 5 9 11 9 15 0 79
62 79 77 0 7 4 13 9 13 5 0 14 13 21 30 7 16 17 30 22 30 6 0 8 7 4 15 -3 8 0
15 6 15 6 0 9 3 5 6 -3 3 1 24 9 47 8 22 17 54 20 71 8 43 12 61 14 61 8 0 15
205 7 235 -10 46 -42 90 -75 106 -20 10 -43 17 -49 16 -14 -3 -18 40 -6 52 5
4 9 16 9 27 1 10 2 20 4 22 3 3 7 27 15 77 3 25 8 58 11 73 14 85 20 448 10
542 -2 17 -7 55 -10 85 -3 30 -8 66 -11 80 -3 14 -7 36 -10 50 -23 120 -66
274 -79 282 -6 4 -7 10 -3 14 3 4 0 19 -7 33 -21 41 -47 105 -46 115 1 5 -2
12 -7 15 -4 3 -30 48 -56 100 -27 51 -53 98 -58 105 -5 6 -24 33 -42 60 -50
77 -51 78 -77 109 -14 16 -24 34 -22 39 1 5 -2 7 -8 3 -5 -3 -10 -2 -10 2 0
27 -270 292 -307 301 -7 2 -13 7 -13 12 0 10 -126 100 -140 100 -4 0 -10 4
-12 9 -4 11 -56 43 -115 72 -24 11 -43 24 -43 29 0 6 -3 9 -7 8 -5 -1 -27 8
-50 20 -24 12 -43 19 -43 15 0 -5 -4 -3 -8 3 -15 22 -306 136 -349 137 -7 0
-13 5 -13 10 0 6 -3 8 -6 5 -3 -3 -21 -2 -41 4 -19 5 -44 12 -54 14 -11 2 -29
7 -41 10 -13 3 -30 7 -38 9 -8 2 -15 4 -15 5 0 1 -16 4 -35 6 -51 7 -85 12
-85 14 0 2 -47 8 -140 20 -65 7 -519 13 -527 5z"/>
</g>
</svg>
